<svg width="16" height="16" viewBox="0 0 16 16" fill="none" xmlns="http://www.w3.org/2000/svg">
<path d="M13.6533 3.21067C13.5286 3.2111 13.4084 3.16443 13.3167 3.08C11.8453 1.73867 9.95733 1 7.99999 1C6.04266 1 4.15466 1.73867 2.68333 3.08067C2.58384 3.15991 2.45796 3.19838 2.33117 3.18828C2.20438 3.17818 2.08618 3.12027 2.00049 3.02628C1.9148 2.93228 1.86805 2.80924 1.86969 2.68206C1.87133 2.55488 1.92124 2.43308 2.00933 2.34133C3.66599 0.831333 5.79333 0 7.99999 0C10.2067 0 12.334 0.831333 13.9907 2.34133C14.0652 2.40932 14.1174 2.49825 14.1404 2.59645C14.1634 2.69465 14.1562 2.79751 14.1198 2.89155C14.0833 2.98558 14.0192 3.06637 13.936 3.12333C13.8527 3.18028 13.7542 3.21073 13.6533 3.21067Z" fill="#939CA3"/>
<path d="M13.6533 3.21067C13.5286 3.2111 13.4084 3.16443 13.3167 3.08C11.8453 1.73867 9.95733 1 7.99999 1C6.04266 1 4.15466 1.73867 2.68333 3.08067C2.58384 3.15991 2.45796 3.19838 2.33117 3.18828C2.20438 3.17818 2.08618 3.12027 2.00049 3.02628C1.9148 2.93228 1.86805 2.80924 1.86969 2.68206C1.87133 2.55488 1.92124 2.43308 2.00933 2.34133C3.66599 0.831333 5.79333 0 7.99999 0C10.2067 0 12.334 0.831333 13.9907 2.34133C14.0652 2.40932 14.1174 2.49825 14.1404 2.59645C14.1634 2.69465 14.1562 2.79751 14.1198 2.89155C14.0833 2.98558 14.0192 3.06637 13.936 3.12333C13.8527 3.18028 13.7542 3.21073 13.6533 3.21067Z" fill="#939CA3"/>
<path d="M14.5 6.478C14.4179 6.47821 14.337 6.45811 14.2645 6.41949C14.1921 6.38087 14.1303 6.32494 14.0847 6.25667C12.6967 4.19 10.422 2.956 8 2.956C5.578 2.956 3.30333 4.19 1.91533 6.25667C1.87873 6.31121 1.83176 6.35801 1.77707 6.39439C1.72239 6.43078 1.66108 6.45604 1.59663 6.46873C1.53219 6.48142 1.46588 6.48129 1.40148 6.46836C1.33709 6.45542 1.27587 6.42993 1.22133 6.39333C1.16679 6.35674 1.11999 6.30976 1.0836 6.25508C1.04721 6.20039 1.02196 6.13908 1.00926 6.07464C0.996574 6.01019 0.996701 5.94388 1.00964 5.87949C1.02257 5.81509 1.04807 5.75387 1.08466 5.69933C2.65866 3.356 5.244 1.95667 8 1.95667C10.756 1.95667 13.3413 3.356 14.9153 5.7C14.9657 5.77526 14.9946 5.86277 14.9991 5.95321C15.0036 6.04364 14.9835 6.13359 14.9408 6.21347C14.8982 6.29334 14.8347 6.36014 14.757 6.40673C14.6794 6.45332 14.5905 6.47795 14.5 6.478Z" fill="#939CA3"/>
<path d="M14.5 6.478C14.4179 6.47821 14.337 6.45811 14.2645 6.41949C14.1921 6.38087 14.1303 6.32494 14.0847 6.25667C12.6967 4.19 10.422 2.956 8 2.956C5.578 2.956 3.30333 4.19 1.91533 6.25667C1.87873 6.31121 1.83176 6.35801 1.77707 6.39439C1.72239 6.43078 1.66108 6.45604 1.59663 6.46873C1.53219 6.48142 1.46588 6.48129 1.40148 6.46836C1.33709 6.45542 1.27587 6.42993 1.22133 6.39333C1.16679 6.35674 1.11999 6.30976 1.0836 6.25508C1.04721 6.20039 1.02196 6.13908 1.00926 6.07464C0.996574 6.01019 0.996701 5.94388 1.00964 5.87949C1.02257 5.81509 1.04807 5.75387 1.08466 5.69933C2.65866 3.356 5.244 1.95667 8 1.95667C10.756 1.95667 13.3413 3.356 14.9153 5.7C14.9657 5.77526 14.9946 5.86277 14.9991 5.95321C15.0036 6.04364 14.9835 6.13359 14.9408 6.21347C14.8982 6.29334 14.8347 6.36014 14.757 6.40673C14.6794 6.45332 14.5905 6.47795 14.5 6.478Z" fill="#939CA3"/>
<path d="M6.42066 16C6.35459 16.0001 6.28916 15.987 6.22816 15.9616C6.16717 15.9362 6.11182 15.8989 6.06533 15.852C5.956 15.742 3.394 13.1267 3.394 10.6087C3.394 7.99532 5.46 5.86932 8 5.86932C10.54 5.86932 12.606 7.99532 12.606 10.6087C12.606 10.7413 12.5533 10.8684 12.4596 10.9622C12.3658 11.056 12.2386 11.1087 12.106 11.1087C11.9734 11.1087 11.8462 11.056 11.7524 10.9622C11.6587 10.8684 11.606 10.7413 11.606 10.6087C11.606 8.54666 9.98866 6.86932 8 6.86932C6.01133 6.86932 4.394 8.54666 4.394 10.6087C4.394 12.72 6.752 15.124 6.776 15.148C6.8455 15.2181 6.89269 15.3072 6.91162 15.4041C6.93055 15.501 6.92037 15.6013 6.88237 15.6925C6.84437 15.7836 6.78025 15.8614 6.69808 15.9161C6.61592 15.9709 6.51939 16 6.42066 16Z" fill="#939CA3"/>
<path d="M6.42066 16C6.35459 16.0001 6.28916 15.987 6.22816 15.9616C6.16717 15.9362 6.11182 15.8989 6.06533 15.852C5.956 15.742 3.394 13.1267 3.394 10.6087C3.394 7.99532 5.46 5.86932 8 5.86932C10.54 5.86932 12.606 7.99532 12.606 10.6087C12.606 10.7413 12.5533 10.8684 12.4596 10.9622C12.3658 11.056 12.2386 11.1087 12.106 11.1087C11.9734 11.1087 11.8462 11.056 11.7524 10.9622C11.6587 10.8684 11.606 10.7413 11.606 10.6087C11.606 8.54666 9.98866 6.86932 8 6.86932C6.01133 6.86932 4.394 8.54666 4.394 10.6087C4.394 12.72 6.752 15.124 6.776 15.148C6.8455 15.2181 6.89269 15.3072 6.91162 15.4041C6.93055 15.501 6.92037 15.6013 6.88237 15.6925C6.84437 15.7836 6.78025 15.8614 6.69808 15.9161C6.61592 15.9709 6.51939 16 6.42066 16Z" fill="#939CA3"/>
<path d="M9.57933 16C8.37667 16 5.58866 13.712 5.31866 11.164C5.22333 10.2633 5.51 9.34201 6.08466 8.69934C6.58466 8.14067 7.26 7.83067 7.986 7.82667H8C8.708 7.82667 9.37733 8.10467 9.88667 8.61067C10.1499 8.87237 10.3585 9.18389 10.5001 9.52705C10.6416 9.87021 10.7135 10.2381 10.7113 10.6093V10.9353C10.7113 11.7387 11.3367 12.392 12.106 12.392C12.8753 12.392 13.5013 11.7387 13.5013 10.9353V10.8213C13.5013 7.70801 11.246 5.11801 8.36666 4.92601C6.866 4.82401 5.42533 5.34267 4.314 6.38134C3.16066 7.46001 2.49933 9.00134 2.49933 10.6093C2.49748 11.9267 2.9421 13.2058 3.76066 14.238C3.84154 14.3418 3.87825 14.4733 3.86283 14.6039C3.84741 14.7346 3.78111 14.8539 3.6783 14.936C3.57549 15.0182 3.44445 15.0564 3.31361 15.0426C3.18277 15.0287 3.06266 14.9638 2.97933 14.862C2.01965 13.6521 1.49799 12.1529 1.49933 10.6087C1.49933 8.72467 2.27666 6.91734 3.63066 5.65067C4.946 4.42001 6.652 3.80734 8.43266 3.92734C11.8353 4.15467 14.5013 7.18268 14.5013 10.8207V10.9347C14.5013 12.2893 13.4267 13.3913 12.106 13.3913C10.7853 13.3913 9.71133 12.2893 9.71133 10.9347V10.6087C9.71133 10.1167 9.52333 9.65934 9.182 9.31934C9.02737 9.16325 8.84338 9.03929 8.64063 8.95462C8.43788 8.86995 8.22038 8.82624 8.00067 8.82601H7.99133C7.428 8.82867 7.04866 9.12134 6.83 9.36601C6.44 9.80134 6.24666 10.4347 6.31266 11.0587C6.53333 13.1373 8.922 15.0007 9.57933 15.0007C9.70869 15.0054 9.83118 15.0601 9.92103 15.1533C10.0109 15.2465 10.0611 15.3709 10.0611 15.5003C10.0611 15.6298 10.0109 15.7542 9.92103 15.8474C9.83118 15.9406 9.70869 15.9953 9.57933 16Z" fill="#939CA3"/>
<path d="M9.57933 16C8.37667 16 5.58866 13.712 5.31866 11.164C5.22333 10.2633 5.51 9.34201 6.08466 8.69934C6.58466 8.14067 7.26 7.83067 7.986 7.82667H8C8.708 7.82667 9.37733 8.10467 9.88667 8.61067C10.1499 8.87237 10.3585 9.18389 10.5001 9.52705C10.6416 9.87021 10.7135 10.2381 10.7113 10.6093V10.9353C10.7113 11.7387 11.3367 12.392 12.106 12.392C12.8753 12.392 13.5013 11.7387 13.5013 10.9353V10.8213C13.5013 7.70801 11.246 5.11801 8.36666 4.92601C6.866 4.82401 5.42533 5.34267 4.314 6.38134C3.16066 7.46001 2.49933 9.00134 2.49933 10.6093C2.49748 11.9267 2.9421 13.2058 3.76066 14.238C3.84154 14.3418 3.87825 14.4733 3.86283 14.6039C3.84741 14.7346 3.78111 14.8539 3.6783 14.936C3.57549 15.0182 3.44445 15.0564 3.31361 15.0426C3.18277 15.0287 3.06266 14.9638 2.97933 14.862C2.01965 13.6521 1.49799 12.1529 1.49933 10.6087C1.49933 8.72467 2.27666 6.91734 3.63066 5.65067C4.946 4.42001 6.652 3.80734 8.43266 3.92734C11.8353 4.15467 14.5013 7.18268 14.5013 10.8207V10.9347C14.5013 12.2893 13.4267 13.3913 12.106 13.3913C10.7853 13.3913 9.71133 12.2893 9.71133 10.9347V10.6087C9.71133 10.1167 9.52333 9.65934 9.182 9.31934C9.02737 9.16325 8.84338 9.03929 8.64063 8.95462C8.43788 8.86995 8.22038 8.82624 8.00067 8.82601H7.99133C7.428 8.82867 7.04866 9.12134 6.83 9.36601C6.44 9.80134 6.24666 10.4347 6.31266 11.0587C6.53333 13.1373 8.922 15.0007 9.57933 15.0007C9.70869 15.0054 9.83118 15.0601 9.92103 15.1533C10.0109 15.2465 10.0611 15.3709 10.0611 15.5003C10.0611 15.6298 10.0109 15.7542 9.92103 15.8474C9.83118 15.9406 9.70869 15.9953 9.57933 16Z" fill="#939CA3"/>
<path d="M11.4347 15.022C9.64533 15.022 7.46066 12.8353 7.46066 10.2827C7.46066 10.15 7.51334 10.0229 7.60711 9.9291C7.70088 9.83533 7.82805 9.78265 7.96066 9.78265C8.09327 9.78265 8.22045 9.83533 8.31422 9.9291C8.40798 10.0229 8.46066 10.15 8.46066 10.2827C8.46066 12.2613 10.124 14.022 11.4347 14.022C11.5673 14.022 11.6944 14.0747 11.7882 14.1684C11.882 14.2622 11.9347 14.3894 11.9347 14.522C11.9347 14.6546 11.882 14.7818 11.7882 14.8755C11.6944 14.9693 11.5673 15.022 11.4347 15.022Z" fill="#939CA3"/>
<path d="M11.4347 15.022C9.64533 15.022 7.46066 12.8353 7.46066 10.2827C7.46066 10.15 7.51334 10.0229 7.60711 9.9291C7.70088 9.83533 7.82805 9.78265 7.96066 9.78265C8.09327 9.78265 8.22045 9.83533 8.31422 9.9291C8.40798 10.0229 8.46066 10.15 8.46066 10.2827C8.46066 12.2613 10.124 14.022 11.4347 14.022C11.5673 14.022 11.6944 14.0747 11.7882 14.1684C11.882 14.2622 11.9347 14.3894 11.9347 14.522C11.9347 14.6546 11.882 14.7818 11.7882 14.8755C11.6944 14.9693 11.5673 15.022 11.4347 15.022Z" fill="#939CA3"/>
</svg>
