<svg width="16" height="16" viewBox="0 0 16 16" fill="none" xmlns="http://www.w3.org/2000/svg">
<g clip-path="url(#clip0_3604_114)">
<path d="M14.7049 4.11972C14.6967 3.68774 14.6888 3.27965 14.6888 2.88486C14.6888 2.73633 14.6298 2.59388 14.5248 2.48885C14.4198 2.38383 14.2773 2.32482 14.1288 2.32482C11.7337 2.32482 9.91011 1.63649 8.39008 0.158583C8.28556 0.0568953 8.14549 0 7.99966 0C7.85383 0 7.71376 0.0568953 7.60923 0.158583C6.08936 1.63649 4.26609 2.32482 1.87113 2.32482C1.7226 2.32482 1.58015 2.38383 1.47512 2.48885C1.37009 2.59388 1.31109 2.73633 1.31109 2.88486C1.31109 3.27973 1.30332 3.68796 1.29503 4.12002C1.21827 8.14006 1.11313 13.6457 7.81623 15.9691C7.93502 16.0103 8.06422 16.0103 8.18302 15.9691C14.8866 13.6456 14.7816 8.13984 14.7049 4.11972ZM7.9997 14.8457C2.25091 12.7573 2.33783 8.18255 2.41497 4.14137C2.4196 3.89884 2.42408 3.66377 2.42721 3.43333C4.67036 3.33865 6.46414 2.65891 7.9997 1.32123C9.5354 2.65891 11.3295 3.33872 13.5728 3.43333C13.5759 3.66369 13.5804 3.89861 13.585 4.141C13.6621 8.18233 13.7489 12.7573 7.9997 14.8457Z" fill="#939CA3"/>
<path d="M9.92824 6.05454L7.22518 8.75744L6.07172 7.60398C5.96609 7.50188 5.82458 7.44536 5.67767 7.44661C5.53076 7.44786 5.39023 7.50677 5.28635 7.61066C5.18247 7.71455 5.12357 7.85509 5.12233 8.00199C5.1211 8.1489 5.17763 8.29041 5.27975 8.39603L6.8292 9.94548C6.88115 9.99755 6.94287 10.0388 7.01083 10.067C7.07878 10.0951 7.15163 10.1096 7.22518 10.1095C7.29873 10.1096 7.37158 10.0951 7.43954 10.067C7.50749 10.0388 7.56922 9.99755 7.62117 9.94548L10.7201 6.84658C10.7722 6.7946 10.8134 6.73287 10.8416 6.66492C10.8697 6.59698 10.8842 6.52416 10.8842 6.45061C10.8843 6.37707 10.8698 6.30424 10.8416 6.23629C10.8135 6.16835 10.7722 6.10661 10.7202 6.05461C10.6152 5.94959 10.4728 5.89058 10.3242 5.89056C10.1757 5.89055 10.0333 5.94953 9.92824 6.05454Z" fill="#939CA3"/>
</g>
<defs>
<clipPath id="clip0_3604_114">
<rect width="16" height="16" fill="white"/>
</clipPath>
</defs>
</svg>
