<svg width="16" height="16" viewBox="0 0 16 16" fill="none" xmlns="http://www.w3.org/2000/svg">
<path fill-rule="evenodd" clip-rule="evenodd" d="M3 3C1.89543 3 1 3.89543 1 5V11C1 12.1046 1.89543 13 3 13H13C14.1046 13 15 12.1046 15 11V5C15 3.89543 14.1046 3 13 3H3ZM2.76469 9.60263C2.97653 9.70088 3.22214 9.75 3.50153 9.75C3.78091 9.75 4.02653 9.70088 4.23837 9.60263C4.45021 9.50132 4.62675 9.36776 4.76797 9.20197C4.91227 9.03311 5.01973 8.8443 5.09034 8.63553C5.16403 8.42675 5.20087 8.21338 5.20087 7.99539C5.20087 7.77741 5.16403 7.56557 5.09034 7.35987C5.01973 7.1511 4.91227 6.96382 4.76797 6.79803C4.62675 6.63224 4.45021 6.50022 4.23837 6.40197C4.02653 6.30066 3.78091 6.25 3.50153 6.25C3.22214 6.25 2.97653 6.30066 2.76469 6.40197C2.55284 6.50022 2.37477 6.63224 2.23047 6.79803C2.08925 6.96382 1.98179 7.1511 1.90811 7.35987C1.83749 7.56557 1.80219 7.77741 1.80219 7.99539C1.80219 8.21338 1.83749 8.42675 1.90811 8.63553C1.98179 8.8443 2.08925 9.03311 2.23047 9.20197C2.37477 9.36776 2.55284 9.50132 2.76469 9.60263ZM4.07718 9.01316C3.92368 9.12675 3.73179 9.18355 3.50153 9.18355C3.27126 9.18355 3.07784 9.12675 2.92126 9.01316C2.76469 8.89956 2.64648 8.75219 2.56666 8.57105C2.48683 8.38991 2.44692 8.19803 2.44692 7.99539C2.44692 7.79583 2.48683 7.60702 2.56666 7.42895C2.64648 7.24781 2.76469 7.10044 2.92126 6.98684C3.07784 6.87325 3.27126 6.81645 3.50153 6.81645C3.73179 6.81645 3.92368 6.87325 4.07718 6.98684C4.23376 7.10044 4.35197 7.24781 4.43179 7.42895C4.51468 7.60702 4.55613 7.79583 4.55613 7.99539C4.55613 8.19803 4.51468 8.38991 4.43179 8.57105C4.35197 8.75219 4.23376 8.89956 4.07718 9.01316ZM5.64816 6.29605V9.70395H7.96921V9.16053H6.27447V6.29605H5.64816ZM8.48831 9.70395V6.29605H10.7725V6.83947H9.11462V7.70526H10.5653V8.23487H9.11462V9.16053H10.7955V9.70395H8.48831ZM11.315 6.29605V9.70395H12.54C12.8163 9.70395 13.0573 9.65636 13.263 9.56118C13.4718 9.46294 13.6452 9.33246 13.7834 9.16974C13.9215 9.00702 14.0244 8.82434 14.0919 8.62171C14.1626 8.41908 14.1979 8.21184 14.1979 8C14.1979 7.78816 14.1626 7.58092 14.0919 7.37829C14.0244 7.17566 13.9215 6.99298 13.7834 6.83026C13.6452 6.66754 13.4718 6.5386 13.263 6.44342C13.0573 6.34518 12.8163 6.29605 12.54 6.29605H11.315ZM11.9413 6.84408H12.5123C12.7518 6.84408 12.9498 6.90088 13.1064 7.01447C13.263 7.125 13.3797 7.2693 13.4564 7.44737C13.5332 7.62237 13.5715 7.80504 13.5715 7.99539C13.5715 8.18882 13.5332 8.37456 13.4564 8.55263C13.3797 8.72763 13.263 8.87193 13.1064 8.98553C12.9498 9.09605 12.7518 9.15132 12.5123 9.15132H11.9413V6.84408Z" fill="#939CA3"/>
</svg>
